<?xml version="1.0" standalone="no"?>
<!DOCTYPE svg PUBLIC "-//W3C//DTD SVG 20010904//EN"
 "http://www.w3.org/TR/2001/REC-SVG-20010904/DTD/svg10.dtd">
<svg version="1.0" xmlns="http://www.w3.org/2000/svg"
 width="84.000000pt" height="84.000000pt" viewBox="0 0 84.000000 84.000000"
 preserveAspectRatio="xMidYMid meet">
<metadata>
Created by potrace 1.11, written by Peter Selinger 2001-2013
</metadata>
<g transform="translate(0.000000,84.000000) scale(0.100000,-0.100000)"
fill="#000000" stroke="none">
<path d="M300 813 c-8 -4 -30 -17 -48 -31 -30 -22 -37 -24 -69 -14 -46 14 -69
2 -78 -40 -6 -25 -3 -34 14 -47 14 -11 19 -23 15 -38 -10 -36 9 -27 38 20 32
51 115 133 124 124 4 -4 1 -14 -7 -23 -11 -14 -10 -19 9 -34 33 -27 29 -55
-10 -58 -43 -3 -108 -34 -135 -63 -28 -32 -43 -89 -43 -169 0 -64 1 -67 42
-106 49 -47 156 -119 164 -111 10 10 -6 27 -47 47 -21 11 -60 40 -85 65 l-47
44 5 86 c5 98 21 128 84 160 30 15 59 20 129 20 50 0 102 -4 118 -8 19 -5 27
-4 27 6 0 7 -12 14 -26 15 -14 1 -33 6 -42 12 -14 8 -13 9 8 7 21 -2 26 3 28
26 2 15 9 27 17 27 11 0 38 31 50 57 0 1 11 0 23 -4 13 -3 22 -13 22 -25 0
-11 13 -38 29 -61 15 -23 34 -59 42 -80 15 -43 35 -44 31 0 -2 18 3 35 13 43
39 32 -6 110 -64 110 -16 0 -31 5 -33 11 -9 28 -243 53 -298 32z m126 -25 c19
-15 24 -17 15 -5 -20 25 -8 31 33 17 44 -14 46 -38 6 -53 -21 -8 -28 -16 -25
-28 3 -10 0 -21 -7 -25 -6 -4 -14 -2 -16 4 -5 17 -22 15 -22 -3 0 -15 -20 -22
-20 -7 0 4 -5 14 -10 22 -8 13 -11 12 -24 -5 -16 -20 -16 -20 -22 3 -3 12 -10
22 -15 22 -21 0 -20 32 1 56 29 30 68 31 106 2z m-247 -37 c11 -7 10 -13 -4
-35 -29 -43 -60 -33 -43 15 10 30 23 35 47 20z m491 -21 c11 -11 20 -23 20
-27 0 -12 -18 -38 -22 -33 -16 21 -38 61 -38 70 0 16 18 12 40 -10z m-295 -50
c3 -5 1 -10 -4 -10 -6 0 -11 5 -11 10 0 6 2 10 4 10 3 0 8 -4 11 -10z"/>
<path d="M355 760 c-3 -5 -1 -10 4 -10 6 0 11 5 11 10 0 6 -2 10 -4 10 -3 0
-8 -4 -11 -10z"/>
<path d="M537 649 c7 -7 15 -10 18 -7 3 3 -2 9 -12 12 -14 6 -15 5 -6 -5z"/>
<path d="M607 646 c-5 -12 -1 -23 10 -32 26 -19 39 -17 21 4 -9 9 -17 24 -20
31 -3 12 -6 11 -11 -3z"/>
<path d="M524 618 c-4 -6 -3 -13 2 -15 54 -20 120 -61 123 -77 2 -11 -2 -53
-9 -93 -11 -65 -16 -74 -41 -85 -16 -7 -29 -18 -29 -23 0 -6 -13 -18 -29 -28
-44 -26 -101 -79 -101 -94 0 -7 -6 -13 -12 -14 -7 0 -3 -5 8 -11 25 -11 51
-54 40 -65 -3 -4 -20 8 -36 25 -31 34 -67 44 -56 16 6 -15 4 -15 -18 0 -14 9
-27 16 -29 16 -3 0 -4 -25 -2 -55 2 -55 -6 -77 -21 -53 -4 6 -7 38 -6 70 1 32
-3 58 -8 58 -6 0 -10 6 -10 14 0 19 -30 29 -47 14 -16 -13 -43 -73 -43 -95 0
-7 8 -17 18 -20 9 -4 25 -16 35 -28 13 -14 20 -16 23 -7 9 19 22 14 26 -10 3
-26 38 -38 38 -14 0 21 6 20 32 -4 26 -24 33 -25 50 -4 7 9 25 29 41 44 15 16
27 35 27 43 0 8 7 21 16 28 12 10 15 25 11 55 -4 40 -2 43 35 68 22 14 43 26
46 26 4 -1 34 -25 66 -55 33 -30 63 -52 68 -49 20 12 7 85 -28 151 -32 62 -35
73 -29 125 9 80 -9 110 -80 137 -66 25 -62 24 -71 9z m181 -354 l5 -29 -14 30
c-9 17 -15 38 -16 48 0 9 -5 17 -11 17 -5 0 -7 5 -3 12 9 13 29 -28 39 -78z
m-435 -83 c-17 -59 -40 -85 -54 -62 -13 21 37 107 55 96 4 -3 4 -18 -1 -34z
m234 7 c8 -13 7 -21 0 -28 -13 -13 -44 13 -44 36 0 20 30 14 44 -8z m-225 -84
c-7 -17 -13 -24 -16 -16 -3 7 1 27 8 45 9 20 15 26 17 16 1 -8 -2 -29 -9 -45z
m109 -8 c15 -39 15 -56 2 -56 -13 0 -40 54 -40 79 0 30 24 16 38 -23z m52 -9
c0 -10 -5 -15 -11 -12 -14 9 -28 48 -21 59 7 12 32 -24 32 -47z"/>
<path d="M490 569 c0 -5 -4 -8 -9 -4 -14 8 -23 -12 -16 -35 7 -23 37 -26 55
-5 14 17 4 55 -16 55 -8 0 -14 -5 -14 -11z"/>
<path d="M220 546 c0 -32 18 -43 38 -23 13 13 13 19 2 31 -19 24 -40 19 -40
-8z"/>
<path d="M293 490 c-85 -52 -80 -164 9 -221 42 -26 96 -20 147 16 67 46 81
117 34 162 -38 34 -96 63 -130 63 -15 0 -42 -9 -60 -20z m133 -36 c84 -48 70
-127 -28 -167 -45 -18 -49 -18 -73 -3 -14 9 -37 34 -51 56 -25 37 -25 41 -13
81 8 22 17 41 21 40 4 0 20 6 35 14 32 17 50 13 109 -21z"/>
<path d="M353 414 c-6 -16 19 -44 39 -44 15 0 20 30 8 45 -16 20 -39 19 -47
-1z"/>
</g>
</svg>
